<?xml version="1.0" standalone="no"?>
<!DOCTYPE svg PUBLIC "-//W3C//DTD SVG 20010904//EN"
 "http://www.w3.org/TR/2001/REC-SVG-20010904/DTD/svg10.dtd">
<svg version="1.0" xmlns="http://www.w3.org/2000/svg"
 width="1440.000000pt" height="1440.000000pt" viewBox="0 0 1440.000000 1440.000000"
 preserveAspectRatio="xMidYMid meet">

<g transform="translate(0.000000,1440.000000) scale(0.100000,-0.100000)"
fill="#000000" stroke="none">
<path d="M8691 10129 c-207 -16 -463 -79 -681 -167 -154 -62 -595 -254 -808
-353 -46 -22 -85 -39 -87 -39 -1 0 -63 -29 -136 -64 -74 -35 -156 -74 -184
-86 -27 -12 -97 -45 -154 -71 -57 -27 -105 -49 -106 -49 -2 0 -54 -24 -117
-54 -565 -267 -1104 -412 -1738 -468 -188 -16 -662 -16 -860 0 -171 15 -423
44 -570 68 -275 44 -664 127 -761 163 -29 11 -115 36 -189 54 -74 19 -178 54
-230 77 -52 23 -103 44 -112 47 -18 5 -25 33 -9 33 5 0 51 28 102 62 52 34
144 87 204 119 93 48 110 61 113 83 4 28 -36 76 -62 76 -21 0 -211 -99 -293
-152 -161 -106 -167 -106 -106 -4 55 90 118 153 201 198 86 47 107 73 92 112
-5 14 -21 32 -36 38 -23 11 -34 8 -98 -26 -39 -22 -90 -53 -114 -70 -44 -31
-120 -125 -166 -206 -35 -61 -35 -22 -1 57 39 87 97 158 162 196 52 30 58 37
58 67 0 48 -40 77 -86 61 -119 -40 -241 -206 -285 -386 -9 -38 -18 -72 -20
-74 -3 -3 -42 18 -174 91 -68 38 -361 192 -393 206 -62 27 -134 5 -162 -49
-19 -36 -15 -64 27 -162 66 -156 85 -339 48 -482 -50 -194 -195 -351 -433
-466 -77 -37 -127 -89 -127 -131 0 -36 52 -93 139 -155 150 -106 340 -230 403
-262 l68 -34 -63 -66 c-107 -114 -167 -258 -182 -435 -6 -71 -5 -90 9 -111 19
-29 75 -35 96 -10 7 9 17 58 21 109 12 146 65 280 137 348 26 24 33 28 28 13
-35 -98 -30 -381 10 -517 14 -48 76 -64 109 -28 17 18 17 25 4 97 -8 45 -14
144 -14 233 0 148 1 157 25 195 l25 40 7 -50 c4 -27 12 -90 18 -138 18 -143
74 -270 163 -373 43 -49 81 -58 110 -26 26 29 20 61 -21 116 -55 73 -88 135
-111 211 -19 60 -29 175 -16 175 3 0 31 -13 63 -29 32 -16 118 -54 193 -84 74
-31 177 -76 229 -100 52 -24 127 -54 166 -66 39 -11 208 -90 376 -174 296
-150 424 -202 553 -227 33 -7 70 -14 82 -16 32 -6 21 -30 -67 -139 -88 -111
-108 -157 -89 -213 30 -92 101 -141 202 -142 78 0 264 48 439 114 278 104 465
145 693 153 368 12 682 -101 968 -352 100 -87 189 -148 241 -165 56 -18 147
-9 188 20 57 39 83 85 83 149 -1 68 -19 116 -92 238 -66 110 -78 166 -43 198
32 29 139 31 436 6 557 -46 860 -61 1244 -61 525 0 895 33 1415 125 385 68
717 95 1165 95 216 0 370 -5 460 -15 420 -45 509 -43 579 13 45 36 81 104 81
156 0 88 -66 167 -291 352 -129 105 -188 162 -234 224 -82 109 -142 265 -168
435 -21 129 -33 365 -20 365 5 0 61 -59 123 -131 353 -405 810 -764 1235 -970
373 -179 711 -259 1100 -259 349 0 606 54 818 172 304 169 496 424 584 775 25
101 27 123 28 328 0 193 -3 233 -23 330 -71 335 -210 628 -405 855 -201 234
-435 357 -666 348 -115 -4 -164 -24 -235 -96 -90 -91 -124 -206 -93 -313 35
-117 76 -168 392 -485 319 -320 356 -367 396 -494 43 -138 35 -278 -27 -468
-45 -139 -86 -213 -162 -294 -137 -145 -287 -201 -537 -199 -218 1 -407 49
-620 156 -317 160 -612 413 -915 785 -143 175 -277 332 -425 496 -49 55 -120
138 -156 185 -101 127 -183 213 -304 317 -462 396 -1015 572 -1634 521z m427
-124 c320 -48 640 -188 938 -411 171 -129 259 -211 527 -494 70 -74 145 -148
168 -165 39 -28 217 -227 310 -345 52 -66 44 -57 170 -210 354 -433 749 -701
1214 -825 139 -37 244 -49 374 -42 134 7 205 24 316 76 210 98 386 315 469
576 71 225 58 411 -44 620 -82 167 -158 255 -385 445 -285 238 -372 372 -321
495 21 49 92 122 133 136 60 19 134 4 245 -51 118 -59 210 -125 294 -212 344
-356 518 -1104 362 -1553 -117 -338 -391 -550 -838 -648 -84 -19 -128 -21
-370 -21 -288 -1 -334 4 -550 55 -340 80 -701 258 -1010 497 -272 210 -603
543 -785 788 -48 66 -115 148 -149 183 -79 82 -234 186 -252 168 -2 -2 3 -24
12 -48 34 -96 94 -354 123 -534 64 -386 74 -442 93 -515 44 -174 153 -343 303
-468 209 -175 226 -192 232 -238 3 -24 0 -51 -7 -63 -16 -31 -83 -59 -173 -71
-76 -11 -104 -8 -277 25 -201 39 -366 55 -575 55 -327 0 -486 -20 -1235 -153
-498 -89 -777 -113 -1213 -103 -153 4 -339 11 -415 16 -1047 71 -1332 79
-1396 37 -57 -38 -43 -160 35 -313 59 -115 63 -163 18 -196 -24 -19 -28 -19
-55 -4 -16 8 -76 56 -134 106 -232 201 -353 272 -549 321 -178 45 -310 49
-531 15 -371 -58 -580 -106 -748 -174 -98 -39 -128 -46 -184 -47 -60 0 -70 3
-97 29 -50 48 -43 72 43 154 57 54 96 81 172 117 54 25 134 72 178 104 45 32
159 106 254 165 94 59 172 112 172 118 0 7 -33 9 -102 5 -129 -6 -184 -25
-347 -120 -69 -40 -137 -78 -151 -84 -14 -6 -51 -23 -82 -38 -56 -26 -58 -26
-163 -16 -128 13 -205 32 -305 76 -41 18 -107 42 -147 54 -40 12 -99 40 -133
64 -34 23 -69 47 -78 52 -10 6 -38 22 -64 37 -25 15 -95 45 -155 66 -60 22
-149 57 -198 79 -50 22 -117 49 -150 60 -33 11 -116 46 -184 77 -67 31 -147
67 -175 80 -29 14 -93 47 -142 74 -49 27 -107 55 -129 62 -70 22 -136 60 -280
158 -77 53 -180 117 -230 142 -62 31 -97 56 -112 80 -34 49 -26 60 123 150 96
59 178 150 229 254 55 111 81 214 100 393 14 130 13 141 -5 214 -26 101 -26
106 11 128 36 22 49 19 99 -19 19 -15 85 -48 147 -73 150 -62 215 -95 313
-162 148 -102 279 -154 925 -364 406 -133 435 -139 890 -196 178 -22 994 -27
1175 -7 567 64 1010 173 1545 380 236 91 402 167 730 332 319 160 348 173 840
384 479 206 592 244 821 280 122 19 400 20 522 1z"/>
<path d="M1326 9007 c-18 -13 -22 -39 -11 -74 8 -26 -33 -73 -64 -73 -29 0
-46 -36 -32 -66 14 -32 50 -39 97 -19 53 22 80 50 100 101 19 50 13 88 -18
122 -24 25 -46 28 -72 9z"/>
<path d="M1762 8679 c-13 -5 -22 -17 -22 -28 0 -36 -21 -68 -56 -85 -47 -22
-67 -20 -94 9 -27 29 -67 33 -87 8 -8 -10 -23 -37 -33 -61 -28 -62 -9 -92 60
-92 49 0 64 -71 18 -86 -32 -10 -44 -49 -24 -79 19 -29 35 -31 82 -9 44 21 74
83 74 152 0 43 3 52 18 52 22 1 90 48 114 81 24 32 35 104 19 123 -16 19 -42
25 -69 15z"/>
<path d="M1128 8489 c-13 -7 -18 -23 -18 -57 -1 -57 -18 -82 -57 -82 -36 0
-53 -16 -53 -52 0 -36 30 -52 87 -45 75 8 123 73 123 165 0 71 -33 100 -82 71z"/>
<path d="M6103 9763 c-13 -2 -36 -21 -53 -41 -24 -29 -30 -46 -30 -85 0 -59
21 -102 60 -122 36 -19 50 -43 50 -89 0 -44 17 -47 54 -10 19 20 26 37 26 65
0 34 -5 41 -47 70 -65 45 -72 56 -73 117 0 68 22 71 40 5 6 -27 14 -54 16 -60
7 -26 33 -12 43 22 9 34 0 100 -16 115 -12 12 -45 18 -70 13z"/>
<path d="M5540 9625 c-8 -10 -10 -29 -6 -54 3 -23 2 -42 -4 -46 -16 -10 -11
-32 8 -37 12 -4 24 -26 37 -69 43 -148 70 -184 130 -177 32 3 72 49 60 68 -6
9 -13 6 -26 -11 -10 -13 -21 -21 -24 -17 -12 12 -73 232 -68 245 3 7 13 15 24
18 10 4 19 13 19 21 0 11 -8 13 -33 9 -30 -6 -34 -4 -50 29 -18 39 -45 47 -67
21z"/>
<path d="M5788 9581 c-27 -24 -32 -36 -36 -88 -3 -46 1 -71 18 -112 28 -63 51
-81 108 -81 36 0 50 6 77 33 58 58 66 139 22 218 -23 44 -52 59 -112 59 -35 0
-52 -6 -77 -29z m95 -9 c43 -48 62 -167 33 -207 -19 -26 -40 -14 -64 39 -31
65 -39 147 -17 169 21 21 28 21 48 -1z"/>
<path d="M3751 9512 c-41 -20 -67 -67 -84 -152 -7 -34 -19 -65 -27 -70 -10 -6
-11 -12 -3 -22 6 -7 13 -84 16 -173 6 -196 20 -241 60 -200 11 10 17 54 22
166 10 196 11 203 59 209 48 6 47 24 -1 30 -46 6 -49 17 -31 114 13 70 30 92
36 46 7 -61 24 -63 37 -3 5 25 2 36 -14 52 -25 25 -27 25 -70 3z"/>
<path d="M5393 9480 c-45 -18 -79 -119 -68 -203 17 -119 148 -162 169 -55 l6
33 23 -29 c28 -34 63 -33 60 2 -4 29 -71 210 -89 240 -15 24 -59 29 -101 12z
m61 -77 c9 -58 7 -171 -4 -178 -30 -19 -63 130 -41 188 15 39 37 34 45 -10z"/>
<path d="M4453 9458 c-4 -7 -10 -40 -13 -73 -4 -50 -8 -60 -25 -63 -81 -13
-110 -55 -110 -164 0 -62 4 -82 21 -105 25 -34 69 -41 113 -18 l31 15 14 -35
c12 -27 21 -35 40 -35 25 0 26 2 26 60 0 111 -33 378 -52 413 -10 20 -33 22
-45 5z m-9 -209 c18 -93 -3 -203 -35 -172 -19 19 -29 94 -17 138 18 69 42 85
52 34z"/>
<path d="M5180 9424 c-7 -8 -30 -14 -50 -14 -30 0 -43 -6 -59 -26 -41 -52 -16
-204 37 -233 26 -14 69 -14 77 -1 3 6 13 10 21 10 10 0 14 -13 14 -51 0 -53
-10 -80 -43 -116 -27 -31 -16 -39 30 -22 23 9 51 32 72 59 33 44 33 46 28 120
-6 77 -27 150 -68 232 -25 52 -42 64 -59 42z m-3 -84 c33 -71 21 -160 -19
-145 -28 11 -54 102 -42 149 8 34 44 32 61 -4z"/>
<path d="M3198 9353 c-46 -29 -73 -89 -73 -166 0 -63 2 -71 28 -93 42 -36 137
-31 137 8 0 4 -16 8 -35 8 -29 0 -36 4 -41 27 -14 55 30 204 56 188 5 -3 8
-19 8 -36 -2 -56 40 -65 64 -14 31 69 -70 124 -144 78z"/>
<path d="M4675 9350 c-58 -28 -80 -70 -80 -150 0 -114 52 -180 131 -166 37 8
45 25 15 33 -18 4 -51 57 -51 80 0 5 16 15 36 22 70 25 99 127 49 176 -29 30
-48 31 -100 5z m55 -56 c0 -36 -24 -94 -39 -94 -14 0 -21 56 -11 91 17 59 50
61 50 3z"/>
<path d="M3480 9353 c-27 -10 -71 -57 -91 -96 -46 -88 -32 -181 30 -207 26
-11 35 -10 56 4 15 10 29 24 32 32 8 23 20 16 26 -15 6 -30 34 -48 49 -33 15
15 11 283 -4 298 -15 15 -76 26 -98 17z m50 -66 c0 -38 -37 -158 -54 -176 -15
-14 -18 -14 -26 -1 -14 21 -12 49 5 106 22 74 75 124 75 71z"/>
<path d="M3912 9313 c-48 -23 -76 -82 -76 -163 0 -97 39 -150 109 -150 35 0
39 15 10 44 -29 29 -35 86 -10 86 54 0 104 60 107 125 3 69 -63 96 -140 58z
m76 -38 c2 -23 -37 -96 -55 -103 -18 -5 -17 50 2 94 16 39 48 44 53 9z"/>
<path d="M10622 6817 c-29 -30 -114 -215 -145 -313 -106 -338 -204 -1054 -177
-1292 12 -109 57 -222 88 -222 28 0 60 28 71 63 10 31 89 506 110 657 43 316
58 402 97 553 77 304 91 354 114 410 20 49 22 59 10 86 -31 75 -122 107 -168
58z"/>
<path d="M2261 6803 c-29 -72 -32 -140 -21 -518 21 -789 31 -1101 36 -1127 25
-129 -179 122 -549 677 -225 339 -258 381 -420 553 -64 67 -132 148 -151 180
-44 73 -85 97 -147 89 -55 -7 -85 -40 -94 -101 -4 -24 -5 -142 -2 -263 7 -303
26 -999 36 -1298 l8 -250 32 -75 c18 -41 41 -98 52 -126 11 -28 28 -59 39 -69
18 -16 20 -16 49 4 16 12 45 40 63 64 18 23 61 72 95 110 39 43 67 84 75 110
9 30 13 126 13 337 -1 340 -18 593 -61 923 -4 29 -3 47 4 47 17 0 74 -71 132
-163 82 -132 366 -557 452 -678 89 -125 361 -455 386 -468 10 -5 45 -13 79
-16 l61 -7 31 80 c42 110 50 153 51 257 0 84 -24 385 -35 431 -7 30 -33 283
-40 389 -3 50 -10 133 -15 185 -5 52 -17 181 -25 285 -17 203 -52 398 -79 440
-21 33 -41 32 -55 -2z"/>
<path d="M8550 6776 l-45 -24 -3 -398 c-3 -468 12 -1027 33 -1204 8 -69 21
-183 29 -255 26 -218 37 -278 63 -330 34 -67 61 -95 93 -95 63 0 196 106 231
185 21 48 54 197 64 295 10 99 45 326 61 405 42 201 69 310 100 405 37 114
102 251 122 258 15 5 16 -19 17 -468 2 -367 15 -517 61 -690 30 -115 91 -245
136 -290 46 -45 116 -76 166 -71 18 1 42 63 42 109 0 22 -7 59 -15 83 -9 24
-20 102 -26 174 -5 71 -19 217 -30 322 -10 106 -19 264 -19 351 0 246 -36 461
-93 567 -37 66 -100 117 -170 136 -69 18 -103 5 -176 -69 -165 -168 -250 -431
-306 -952 -9 -85 -19 -158 -22 -162 -15 -25 -21 8 -27 140 -4 81 -12 203 -18
272 -5 69 -11 222 -12 340 -2 118 -8 274 -15 345 -6 72 -15 225 -20 340 -9
224 -16 256 -63 289 -34 24 -106 20 -158 -8z"/>
<path d="M4183 6533 c-68 -42 -160 -118 -172 -142 -5 -9 -5 -45 0 -81 4 -36
15 -119 24 -185 8 -66 24 -187 35 -270 10 -82 29 -211 40 -285 11 -74 43 -290
70 -480 59 -410 72 -475 113 -558 35 -70 49 -78 129 -69 70 9 133 48 159 100
20 39 21 52 16 172 -3 71 -31 304 -62 517 -59 416 -59 418 -46 418 4 0 104
-61 222 -137 320 -204 727 -449 877 -527 78 -41 121 -44 148 -8 35 45 7 120
-67 182 -55 46 -466 315 -736 481 -117 72 -213 135 -213 140 0 5 6 11 13 13
52 15 527 196 584 223 107 50 138 100 82 132 -23 13 -35 11 -130 -17 -604
-181 -712 -211 -797 -226 -39 -7 -45 5 -56 99 -7 62 -33 235 -62 413 -9 57
-23 110 -31 118 -25 25 -76 16 -140 -23z"/>
<path d="M3195 6280 c-204 -44 -368 -184 -470 -403 -91 -195 -128 -373 -128
-632 -1 -199 17 -310 72 -443 90 -221 258 -342 475 -342 153 0 277 80 424 275
65 86 245 443 240 476 -2 14 -14 29 -30 37 -23 11 -32 10 -57 -3 -24 -12 -42
-40 -85 -130 -85 -179 -173 -303 -261 -371 -30 -22 -43 -26 -83 -22 -124 12
-219 107 -268 268 -25 81 -23 85 54 97 146 23 301 109 449 250 126 120 179
200 224 338 30 93 30 211 1 278 -27 59 -91 154 -128 188 -40 37 -148 108 -191
125 -42 18 -183 26 -238 14z m286 -294 c47 -22 98 -73 115 -113 37 -87 -8
-258 -99 -377 -33 -44 -143 -144 -216 -197 -77 -55 -185 -101 -244 -103 l-52
-1 -3 105 c-6 172 31 342 102 476 49 93 83 134 144 176 86 60 175 72 253 34z"/>
<path d="M6490 6270 c-194 -40 -367 -193 -484 -427 -109 -219 -164 -491 -146
-724 10 -126 32 -205 90 -324 106 -220 285 -331 530 -329 126 1 164 13 258 83
95 70 132 115 204 246 103 186 138 323 138 540 0 83 -5 168 -10 190 -5 22 -14
81 -20 130 -14 116 -61 277 -107 373 -45 91 -128 184 -197 219 -57 29 -176 39
-256 23z m175 -221 c79 -37 163 -151 205 -279 22 -64 54 -219 72 -343 9 -68 9
-114 0 -215 -19 -204 -59 -324 -138 -412 -95 -105 -273 -103 -394 6 -125 112
-179 285 -160 504 19 207 56 366 121 509 39 86 133 225 161 239 36 17 84 14
133 -9z"/>
<path d="M9941 6244 c-12 -15 -21 -41 -21 -59 0 -40 34 -85 63 -85 12 0 41 9
65 20 34 15 42 24 42 45 0 84 -102 138 -149 79z"/>
<path d="M9923 5968 c-47 -23 -52 -56 -59 -359 -7 -288 -1 -389 40 -799 22
-214 61 -305 145 -337 39 -15 46 -15 70 -2 46 26 47 46 22 402 -12 183 -26
458 -31 612 -11 338 -27 420 -96 474 -29 23 -57 26 -91 9z"/>
<path d="M7925 5524 c-16 -2 -174 -13 -349 -25 -345 -23 -418 -36 -424 -77 -2
-15 10 -30 45 -56 89 -65 115 -68 440 -61 492 10 673 32 750 90 41 32 46 76
11 99 -43 27 -322 45 -473 30z"/>
<path d="M10343 4589 c-36 -10 -37 -12 -47 -52 -5 -21 -1 -33 18 -52 22 -22
34 -25 95 -25 59 0 73 3 91 22 27 29 25 69 -3 96 -25 24 -93 29 -154 11z"/>
</g>
</svg>
